<?xml version="1.0" encoding="UTF-8" standalone="no"?>
<!DOCTYPE svg PUBLIC "-//W3C//DTD SVG 1.1//EN"
 "http://www.w3.org/Graphics/SVG/1.1/DTD/svg11.dtd">
<!-- Generated by graphviz version 2.43.0 (0)
 -->
<!-- Title: src/librarysystemapp Pages: 1 -->
<svg width="302pt" height="175pt"
 viewBox="0.00 0.00 302.00 175.00" xmlns="http://www.w3.org/2000/svg" xmlns:xlink="http://www.w3.org/1999/xlink">
<g id="graph0" class="graph" transform="scale(1 1) rotate(0) translate(4 171)">
<title>src/librarysystemapp</title>
<polygon fill="white" stroke="transparent" points="-4,4 -4,-171 298,-171 298,4 -4,4"/>
<g id="clust1" class="cluster">
<title>clusterdir_68267d1309a1af8e8297ef4c3efbcdba</title>
<g id="a_clust1"><a xlink:href="dir_68267d1309a1af8e8297ef4c3efbcdba.html" target="_top" xlink:title="src">
<polygon fill="#ddddee" stroke="black" points="8,-8 8,-159 286,-159 286,-8 8,-8"/>
<text text-anchor="middle" x="147" y="-147" font-family="Helvetica,sans-Serif" font-size="10.00">src</text>
</a>
</g>
</g>
<g id="clust2" class="cluster">
<title>clusterdir_f586dae50a00e0ad832860da9fb01ffa</title>
<g id="a_clust2"><a xlink:href="dir_f586dae50a00e0ad832860da9fb01ffa.html" target="_top">
<polygon fill="#eeeeff" stroke="black" points="16,-80 16,-132 278,-132 278,-80 16,-80"/>
</a>
</g>
</g>
<!-- dir_39e7d2ef6941a890097e9a67e73b43a0 -->
<g id="node1" class="node">
<title>dir_39e7d2ef6941a890097e9a67e73b43a0</title>
<g id="a_node1"><a xlink:href="dir_39e7d2ef6941a890097e9a67e73b43a0.html" target="_top" xlink:title="librarysystem">
<polygon fill="white" stroke="red" points="100,-52 16,-52 16,-16 100,-16 100,-52"/>
<text text-anchor="middle" x="58" y="-31.5" font-family="Helvetica,sans-Serif" font-size="10.00">librarysystem</text>
</a>
</g>
</g>
<!-- dir_f586dae50a00e0ad832860da9fb01ffa -->
<g id="node2" class="node">
<title>dir_f586dae50a00e0ad832860da9fb01ffa</title>
<text text-anchor="middle" x="219" y="-103.5" font-family="Helvetica,sans-Serif" font-size="10.00">librarysystemapp</text>
</g>
<!-- dir_9fdab4eefcef229872e6cc2b3507d8cd -->
<g id="node3" class="node">
<title>dir_9fdab4eefcef229872e6cc2b3507d8cd</title>
<g id="a_node3"><a xlink:href="dir_9fdab4eefcef229872e6cc2b3507d8cd.html" target="_top" xlink:title="header">
<polygon fill="white" stroke="black" points="150,-124 96,-124 96,-88 150,-88 150,-124"/>
<text text-anchor="middle" x="123" y="-103.5" font-family="Helvetica,sans-Serif" font-size="10.00">header</text>
</a>
</g>
</g>
<!-- dir_e321dbd61ee74a36648fb4a0d3c61f42 -->
<g id="node4" class="node">
<title>dir_e321dbd61ee74a36648fb4a0d3c61f42</title>
<g id="a_node4"><a xlink:href="dir_e321dbd61ee74a36648fb4a0d3c61f42.html" target="_top" xlink:title="src">
<polygon fill="white" stroke="black" points="78,-124 24,-124 24,-88 78,-88 78,-124"/>
<text text-anchor="middle" x="51" y="-103.5" font-family="Helvetica,sans-Serif" font-size="10.00">src</text>
</a>
</g>
</g>
<!-- dir_e321dbd61ee74a36648fb4a0d3c61f42&#45;&gt;dir_39e7d2ef6941a890097e9a67e73b43a0 -->
<g id="edge1" class="edge">
<title>dir_e321dbd61ee74a36648fb4a0d3c61f42&#45;&gt;dir_39e7d2ef6941a890097e9a67e73b43a0</title>
<path fill="none" stroke="black" d="M52.73,-87.7C53.5,-79.98 54.43,-70.71 55.29,-62.11"/>
<polygon fill="black" stroke="black" points="58.78,-62.4 56.29,-52.1 51.81,-61.71 58.78,-62.4"/>
<g id="a_edge1&#45;headlabel"><a xlink:href="dir_000006_000001.html" target="_top" xlink:title="1">
<text text-anchor="middle" x="61.24" y="-63.76" font-family="Helvetica,sans-Serif" font-size="10.00">1</text>
</a>
</g>
</g>
</g>
</svg>
