<?xml version="1.0" encoding="UTF-8" standalone="no"?>
<!DOCTYPE svg PUBLIC "-//W3C//DTD SVG 1.1//EN"
 "http://www.w3.org/Graphics/SVG/1.1/DTD/svg11.dtd">
<!-- Generated by graphviz version 2.43.0 (0)
 -->
<!-- Title: src Pages: 1 -->
<svg width="286pt" height="148pt"
 viewBox="0.00 0.00 286.00 148.00" xmlns="http://www.w3.org/2000/svg" xmlns:xlink="http://www.w3.org/1999/xlink">
<g id="graph0" class="graph" transform="scale(1 1) rotate(0) translate(4 144)">
<title>src</title>
<polygon fill="white" stroke="transparent" points="-4,4 -4,-144 282,-144 282,4 -4,4"/>
<g id="clust1" class="cluster">
<title>clusterdir_68267d1309a1af8e8297ef4c3efbcdba</title>
<g id="a_clust1"><a xlink:href="dir_68267d1309a1af8e8297ef4c3efbcdba.html" target="_top">
<polygon fill="#eeeeff" stroke="black" points="8,-8 8,-132 270,-132 270,-8 8,-8"/>
</a>
</g>
</g>
<!-- dir_68267d1309a1af8e8297ef4c3efbcdba -->
<g id="node1" class="node">
<title>dir_68267d1309a1af8e8297ef4c3efbcdba</title>
<text text-anchor="middle" x="235" y="-103.5" font-family="Helvetica,sans-Serif" font-size="10.00">src</text>
</g>
<!-- dir_39e7d2ef6941a890097e9a67e73b43a0 -->
<g id="node2" class="node">
<title>dir_39e7d2ef6941a890097e9a67e73b43a0</title>
<g id="a_node2"><a xlink:href="dir_39e7d2ef6941a890097e9a67e73b43a0.html" target="_top" xlink:title="librarysystem">
<polygon fill="white" stroke="red" points="181,-52 97,-52 97,-16 181,-16 181,-52"/>
<text text-anchor="middle" x="139" y="-31.5" font-family="Helvetica,sans-Serif" font-size="10.00">librarysystem</text>
</a>
</g>
</g>
<!-- dir_f586dae50a00e0ad832860da9fb01ffa -->
<g id="node3" class="node">
<title>dir_f586dae50a00e0ad832860da9fb01ffa</title>
<g id="a_node3"><a xlink:href="dir_f586dae50a00e0ad832860da9fb01ffa.html" target="_top" xlink:title="librarysystemapp">
<polygon fill="white" stroke="red" points="190,-124 88,-124 88,-88 190,-88 190,-124"/>
<text text-anchor="middle" x="139" y="-103.5" font-family="Helvetica,sans-Serif" font-size="10.00">librarysystemapp</text>
</a>
</g>
</g>
<!-- dir_f586dae50a00e0ad832860da9fb01ffa&#45;&gt;dir_39e7d2ef6941a890097e9a67e73b43a0 -->
<g id="edge1" class="edge">
<title>dir_f586dae50a00e0ad832860da9fb01ffa&#45;&gt;dir_39e7d2ef6941a890097e9a67e73b43a0</title>
<path fill="none" stroke="black" d="M139,-87.7C139,-79.98 139,-70.71 139,-62.11"/>
<polygon fill="black" stroke="black" points="142.5,-62.1 139,-52.1 135.5,-62.1 142.5,-62.1"/>
<g id="a_edge1&#45;headlabel"><a xlink:href="dir_000004_000001.html" target="_top" xlink:title="1">
<text text-anchor="middle" x="145.34" y="-63.2" font-family="Helvetica,sans-Serif" font-size="10.00">1</text>
</a>
</g>
</g>
<!-- dir_0619a8f54b4fad7043a6de45be8fde0b -->
<g id="node4" class="node">
<title>dir_0619a8f54b4fad7043a6de45be8fde0b</title>
<g id="a_node4"><a xlink:href="dir_0619a8f54b4fad7043a6de45be8fde0b.html" target="_top" xlink:title="utility">
<polygon fill="white" stroke="red" points="70,-124 16,-124 16,-88 70,-88 70,-124"/>
<text text-anchor="middle" x="43" y="-103.5" font-family="Helvetica,sans-Serif" font-size="10.00">utility</text>
</a>
</g>
</g>
</g>
</svg>
