<?xml version="1.0" encoding="UTF-8" standalone="no"?>
<!DOCTYPE svg PUBLIC "-//W3C//DTD SVG 1.1//EN"
 "http://www.w3.org/Graphics/SVG/1.1/DTD/svg11.dtd">
<!-- Generated by graphviz version 2.43.0 (0)
 -->
<!-- Title: src/librarysystemapp/src Pages: 1 -->
<svg width="126pt" height="151pt"
 viewBox="0.00 0.00 126.00 151.00" xmlns="http://www.w3.org/2000/svg" xmlns:xlink="http://www.w3.org/1999/xlink">
<g id="graph0" class="graph" transform="scale(1 1) rotate(0) translate(4 147)">
<title>src/librarysystemapp/src</title>
<polygon fill="white" stroke="transparent" points="-4,4 -4,-147 122,-147 122,4 -4,4"/>
<g id="clust1" class="cluster">
<title>clusterdir_f586dae50a00e0ad832860da9fb01ffa</title>
<g id="a_clust1"><a xlink:href="dir_f586dae50a00e0ad832860da9fb01ffa.html" target="_top" xlink:title="librarysystemapp">
<polygon fill="#ddddee" stroke="black" points="8,-64 8,-135 110,-135 110,-64 8,-64"/>
<text text-anchor="middle" x="59" y="-123" font-family="Helvetica,sans-Serif" font-size="10.00">librarysystemapp</text>
</a>
</g>
</g>
<!-- dir_e321dbd61ee74a36648fb4a0d3c61f42 -->
<g id="node1" class="node">
<title>dir_e321dbd61ee74a36648fb4a0d3c61f42</title>
<g id="a_node1"><a xlink:href="dir_e321dbd61ee74a36648fb4a0d3c61f42.html" target="_top" xlink:title="src">
<polygon fill="#eeeeff" stroke="black" points="86,-108 32,-108 32,-72 86,-72 86,-108"/>
<text text-anchor="middle" x="59" y="-87.5" font-family="Helvetica,sans-Serif" font-size="10.00">src</text>
</a>
</g>
</g>
<!-- dir_39e7d2ef6941a890097e9a67e73b43a0 -->
<g id="node2" class="node">
<title>dir_39e7d2ef6941a890097e9a67e73b43a0</title>
<g id="a_node2"><a xlink:href="dir_39e7d2ef6941a890097e9a67e73b43a0.html" target="_top" xlink:title="librarysystem">
<polygon fill="white" stroke="red" points="101,-36 17,-36 17,0 101,0 101,-36"/>
<text text-anchor="middle" x="59" y="-15.5" font-family="Helvetica,sans-Serif" font-size="10.00">librarysystem</text>
</a>
</g>
</g>
<!-- dir_e321dbd61ee74a36648fb4a0d3c61f42&#45;&gt;dir_39e7d2ef6941a890097e9a67e73b43a0 -->
<g id="edge1" class="edge">
<title>dir_e321dbd61ee74a36648fb4a0d3c61f42&#45;&gt;dir_39e7d2ef6941a890097e9a67e73b43a0</title>
<path fill="none" stroke="black" d="M59,-71.7C59,-63.98 59,-54.71 59,-46.11"/>
<polygon fill="black" stroke="black" points="62.5,-46.1 59,-36.1 55.5,-46.1 62.5,-46.1"/>
<g id="a_edge1&#45;headlabel"><a xlink:href="dir_000006_000001.html" target="_top" xlink:title="1">
<text text-anchor="middle" x="65.34" y="-47.2" font-family="Helvetica,sans-Serif" font-size="10.00">1</text>
</a>
</g>
</g>
</g>
</svg>
