<?xml version="1.0" encoding="UTF-8" standalone="no"?>
<!DOCTYPE svg PUBLIC "-//W3C//DTD SVG 1.1//EN"
 "http://www.w3.org/Graphics/SVG/1.1/DTD/svg11.dtd">
<!-- Generated by graphviz version 2.43.0 (0)
 -->
<!-- Title: src/librarysystemapp/src/librarysystemapp.cpp Pages: 1 -->
<svg width="437pt" height="151pt"
 viewBox="0.00 0.00 436.50 151.00" xmlns="http://www.w3.org/2000/svg" xmlns:xlink="http://www.w3.org/1999/xlink">
<g id="graph0" class="graph" transform="scale(1 1) rotate(0) translate(4 147)">
<title>src/librarysystemapp/src/librarysystemapp.cpp</title>
<polygon fill="white" stroke="transparent" points="-4,4 -4,-147 432.5,-147 432.5,4 -4,4"/>
<!-- Node1 -->
<g id="node1" class="node">
<title>Node1</title>
<g id="a_node1"><a xlink:title=" ">
<polygon fill="#bfbfbf" stroke="black" points="106.5,-112.5 106.5,-142.5 249.5,-142.5 249.5,-112.5 106.5,-112.5"/>
<text text-anchor="start" x="114.5" y="-130.5" font-family="Helvetica,sans-Serif" font-size="10.00">src/librarysystemapp</text>
<text text-anchor="middle" x="178" y="-119.5" font-family="Helvetica,sans-Serif" font-size="10.00">/src/librarysystemapp.cpp</text>
</a>
</g>
</g>
<!-- Node2 -->
<g id="node2" class="node">
<title>Node2</title>
<g id="a_node2"><a xlink:title=" ">
<polygon fill="white" stroke="#bfbfbf" points="0,-56.5 0,-75.5 60,-75.5 60,-56.5 0,-56.5"/>
<text text-anchor="middle" x="30" y="-63.5" font-family="Helvetica,sans-Serif" font-size="10.00">iostream</text>
</a>
</g>
</g>
<!-- Node1&#45;&gt;Node2 -->
<g id="edge1" class="edge">
<title>Node1&#45;&gt;Node2</title>
<path fill="none" stroke="midnightblue" d="M142.93,-112.4C117.98,-102.37 84.79,-89.03 60.86,-79.4"/>
<polygon fill="midnightblue" stroke="midnightblue" points="62.12,-76.14 51.54,-75.66 59.51,-82.64 62.12,-76.14"/>
</g>
<!-- Node3 -->
<g id="node3" class="node">
<title>Node3</title>
<g id="a_node3"><a xlink:title=" ">
<polygon fill="white" stroke="#bfbfbf" points="78.5,-56.5 78.5,-75.5 121.5,-75.5 121.5,-56.5 78.5,-56.5"/>
<text text-anchor="middle" x="100" y="-63.5" font-family="Helvetica,sans-Serif" font-size="10.00">stack</text>
</a>
</g>
</g>
<!-- Node1&#45;&gt;Node3 -->
<g id="edge2" class="edge">
<title>Node1&#45;&gt;Node3</title>
<path fill="none" stroke="midnightblue" d="M159.52,-112.4C147.48,-103.22 131.8,-91.26 119.56,-81.92"/>
<polygon fill="midnightblue" stroke="midnightblue" points="121.42,-78.94 111.35,-75.66 117.18,-84.51 121.42,-78.94"/>
</g>
<!-- Node4 -->
<g id="node4" class="node">
<title>Node4</title>
<g id="a_node4"><a xlink:title=" ">
<polygon fill="white" stroke="#bfbfbf" points="244,-0.5 244,-19.5 288,-19.5 288,-0.5 244,-0.5"/>
<text text-anchor="middle" x="266" y="-7.5" font-family="Helvetica,sans-Serif" font-size="10.00">string</text>
</a>
</g>
</g>
<!-- Node1&#45;&gt;Node4 -->
<g id="edge3" class="edge">
<title>Node1&#45;&gt;Node4</title>
<path fill="none" stroke="midnightblue" d="M171.13,-112.34C164.87,-97.19 158.11,-73.06 169,-56 183.21,-33.75 211.57,-22.33 233.97,-16.58"/>
<polygon fill="midnightblue" stroke="midnightblue" points="234.81,-19.98 243.77,-14.32 233.24,-13.15 234.81,-19.98"/>
</g>
<!-- Node5 -->
<g id="node5" class="node">
<title>Node5</title>
<g id="a_node5"><a xlink:title=" ">
<polygon fill="white" stroke="#bfbfbf" points="178,-56.5 178,-75.5 234,-75.5 234,-56.5 178,-56.5"/>
<text text-anchor="middle" x="206" y="-63.5" font-family="Helvetica,sans-Serif" font-size="10.00">sstream</text>
</a>
</g>
</g>
<!-- Node1&#45;&gt;Node5 -->
<g id="edge4" class="edge">
<title>Node1&#45;&gt;Node5</title>
<path fill="none" stroke="midnightblue" d="M184.64,-112.4C188.54,-104.11 193.5,-93.55 197.67,-84.71"/>
<polygon fill="midnightblue" stroke="midnightblue" points="200.83,-86.2 201.93,-75.66 194.5,-83.22 200.83,-86.2"/>
</g>
<!-- Node6 -->
<g id="node6" class="node">
<title>Node6</title>
<g id="a_node6"><a xlink:title=" ">
<polygon fill="white" stroke="#bfbfbf" points="252.5,-56.5 252.5,-75.5 317.5,-75.5 317.5,-56.5 252.5,-56.5"/>
<text text-anchor="middle" x="285" y="-63.5" font-family="Helvetica,sans-Serif" font-size="10.00">stdexcept</text>
</a>
</g>
</g>
<!-- Node1&#45;&gt;Node6 -->
<g id="edge5" class="edge">
<title>Node1&#45;&gt;Node6</title>
<path fill="none" stroke="midnightblue" d="M203.36,-112.4C220.67,-102.77 243.48,-90.09 260.58,-80.58"/>
<polygon fill="midnightblue" stroke="midnightblue" points="262.39,-83.58 269.43,-75.66 258.99,-77.46 262.39,-83.58"/>
</g>
<!-- Node7 -->
<g id="node7" class="node">
<title>Node7</title>
<g id="a_node7"><a xlink:href="librarysystem_8h.html" target="_top" xlink:title=" ">
<polygon fill="white" stroke="black" points="335.5,-56.5 335.5,-75.5 428.5,-75.5 428.5,-56.5 335.5,-56.5"/>
<text text-anchor="middle" x="382" y="-63.5" font-family="Helvetica,sans-Serif" font-size="10.00">librarysystem.h</text>
</a>
</g>
</g>
<!-- Node1&#45;&gt;Node7 -->
<g id="edge6" class="edge">
<title>Node1&#45;&gt;Node7</title>
<path fill="none" stroke="midnightblue" d="M226.09,-112.47C261.74,-102.08 309.73,-88.08 343.01,-78.37"/>
<polygon fill="midnightblue" stroke="midnightblue" points="344.22,-81.67 352.84,-75.51 342.26,-74.95 344.22,-81.67"/>
</g>
<!-- Node7&#45;&gt;Node4 -->
<g id="edge7" class="edge">
<title>Node7&#45;&gt;Node4</title>
<path fill="none" stroke="midnightblue" d="M363.62,-56.44C344.78,-47.68 315.27,-33.94 293.62,-23.86"/>
<polygon fill="midnightblue" stroke="midnightblue" points="294.84,-20.56 284.29,-19.52 291.88,-26.91 294.84,-20.56"/>
</g>
</g>
</svg>
