<?xml version="1.0" encoding="UTF-8" standalone="no"?>
<!DOCTYPE svg PUBLIC "-//W3C//DTD SVG 1.1//EN"
 "http://www.w3.org/Graphics/SVG/1.1/DTD/svg11.dtd">
<!-- Generated by graphviz version 9.0.0 (20230911.1827)
 -->
<!-- Title:  Final/ce103&#45;final&#45;yakup&#45;eroglu&#45;hasan&#45;basri&#45;taskin&#45;cpp/src/librarysystemapp/src/librarysystemapp.cpp Pages: 1 -->
<svg width="405pt" height="188pt"
 viewBox="0.00 0.00 405.12 188.00" xmlns="http://www.w3.org/2000/svg" xmlns:xlink="http://www.w3.org/1999/xlink">
<g id="graph0" class="graph" transform="scale(1 1) rotate(0) translate(4 184)">
<title> Final/ce103&#45;final&#45;yakup&#45;eroglu&#45;hasan&#45;basri&#45;taskin&#45;cpp/src/librarysystemapp/src/librarysystemapp.cpp</title>
<!-- Node1 -->
<g id="Node000001" class="node">
<title>Node1</title>
<g id="a_Node000001"><a xlink:title=" ">
<polygon fill="#999999" stroke="#666666" points="222.75,-180 110.75,-180 110.75,-112 222.75,-112 222.75,-180"/>
<text text-anchor="start" x="118.75" y="-166.5" font-family="Helvetica,sans-Serif" font-size="10.00"> Final/ce103&#45;final</text>
<text text-anchor="start" x="118.75" y="-154.5" font-family="Helvetica,sans-Serif" font-size="10.00">&#45;yakup&#45;eroglu&#45;hasan</text>
<text text-anchor="start" x="118.75" y="-142.5" font-family="Helvetica,sans-Serif" font-size="10.00">&#45;basri&#45;taskin&#45;cpp/src</text>
<text text-anchor="start" x="118.75" y="-130.5" font-family="Helvetica,sans-Serif" font-size="10.00">/librarysystemapp/src</text>
<text text-anchor="middle" x="166.75" y="-118.5" font-family="Helvetica,sans-Serif" font-size="10.00">/librarysystemapp.cpp</text>
</a>
</g>
</g>
<!-- Node2 -->
<g id="Node000002" class="node">
<title>Node2</title>
<g id="a_Node000002"><a xlink:title=" ">
<polygon fill="#e0e0e0" stroke="#999999" points="53.5,-76 0,-76 0,-56 53.5,-56 53.5,-76"/>
<text text-anchor="middle" x="26.75" y="-62.5" font-family="Helvetica,sans-Serif" font-size="10.00">iostream</text>
</a>
</g>
</g>
<!-- Node1&#45;&gt;Node2 -->
<g id="edge1_Node000001_Node000002" class="edge">
<title>Node1&#45;&gt;Node2</title>
<g id="a_edge1_Node000001_Node000002"><a xlink:title=" ">
<path fill="none" stroke="#63b8ff" d="M110.61,-113.72C90.89,-102.74 69.65,-90.9 53.47,-81.89"/>
<polygon fill="#63b8ff" stroke="#63b8ff" points="55.4,-78.96 44.96,-77.15 52,-85.07 55.4,-78.96"/>
</a>
</g>
</g>
<!-- Node3 -->
<g id="Node000003" class="node">
<title>Node3</title>
<g id="a_Node000003"><a xlink:title=" ">
<polygon fill="#e0e0e0" stroke="#999999" points="111.75,-76 71.75,-76 71.75,-56 111.75,-56 111.75,-76"/>
<text text-anchor="middle" x="91.75" y="-62.5" font-family="Helvetica,sans-Serif" font-size="10.00">stack</text>
</a>
</g>
</g>
<!-- Node1&#45;&gt;Node3 -->
<g id="edge2_Node000001_Node000003" class="edge">
<title>Node1&#45;&gt;Node3</title>
<g id="a_edge2_Node000001_Node000003"><a xlink:title=" ">
<path fill="none" stroke="#63b8ff" d="M134.94,-111.92C125.89,-102.51 116.39,-92.63 108.61,-84.53"/>
<polygon fill="#63b8ff" stroke="#63b8ff" points="111.17,-82.15 101.72,-77.37 106.13,-87 111.17,-82.15"/>
</a>
</g>
</g>
<!-- Node4 -->
<g id="Node000004" class="node">
<title>Node4</title>
<g id="a_Node000004"><a xlink:title=" ">
<polygon fill="#e0e0e0" stroke="#999999" points="267.75,-20 227.75,-20 227.75,0 267.75,0 267.75,-20"/>
<text text-anchor="middle" x="247.75" y="-6.5" font-family="Helvetica,sans-Serif" font-size="10.00">string</text>
</a>
</g>
</g>
<!-- Node1&#45;&gt;Node4 -->
<g id="edge3_Node000001_Node000004" class="edge">
<title>Node1&#45;&gt;Node4</title>
<g id="a_edge3_Node000001_Node000004"><a xlink:title=" ">
<path fill="none" stroke="#63b8ff" d="M154.63,-111.91C150.26,-94.13 148.59,-72.52 158.75,-56 171.24,-35.69 196.05,-24.2 216.31,-17.93"/>
<polygon fill="#63b8ff" stroke="#63b8ff" points="217.13,-21.34 225.83,-15.29 215.26,-14.59 217.13,-21.34"/>
</a>
</g>
</g>
<!-- Node5 -->
<g id="Node000005" class="node">
<title>Node5</title>
<g id="a_Node000005"><a xlink:title=" ">
<polygon fill="#e0e0e0" stroke="#999999" points="219.38,-76 168.12,-76 168.12,-56 219.38,-56 219.38,-76"/>
<text text-anchor="middle" x="193.75" y="-62.5" font-family="Helvetica,sans-Serif" font-size="10.00">sstream</text>
</a>
</g>
</g>
<!-- Node1&#45;&gt;Node5 -->
<g id="edge4_Node000001_Node000005" class="edge">
<title>Node1&#45;&gt;Node5</title>
<g id="a_edge4_Node000001_Node000005"><a xlink:title=" ">
<path fill="none" stroke="#63b8ff" d="M178.2,-111.92C181.14,-103.42 184.22,-94.53 186.85,-86.93"/>
<polygon fill="#63b8ff" stroke="#63b8ff" points="190.08,-88.3 190.04,-77.71 183.46,-86.01 190.08,-88.3"/>
</a>
</g>
</g>
<!-- Node6 -->
<g id="Node000006" class="node">
<title>Node6</title>
<g id="a_Node000006"><a xlink:title=" ">
<polygon fill="#e0e0e0" stroke="#999999" points="296.12,-76 237.38,-76 237.38,-56 296.12,-56 296.12,-76"/>
<text text-anchor="middle" x="266.75" y="-62.5" font-family="Helvetica,sans-Serif" font-size="10.00">stdexcept</text>
</a>
</g>
</g>
<!-- Node1&#45;&gt;Node6 -->
<g id="edge5_Node000001_Node000006" class="edge">
<title>Node1&#45;&gt;Node6</title>
<g id="a_edge5_Node000001_Node000006"><a xlink:title=" ">
<path fill="none" stroke="#63b8ff" d="M209.45,-111.69C222.13,-101.8 235.45,-91.41 246.05,-83.14"/>
<polygon fill="#63b8ff" stroke="#63b8ff" points="248.01,-86.06 253.74,-77.15 243.7,-80.54 248.01,-86.06"/>
</a>
</g>
</g>
<!-- Node7 -->
<g id="Node000007" class="node">
<title>Node7</title>
<g id="a_Node000007"><a xlink:href="librarysystem_8h.html" target="_top" xlink:title=" ">
<polygon fill="white" stroke="#666666" points="397.12,-76 314.38,-76 314.38,-56 397.12,-56 397.12,-76"/>
<text text-anchor="middle" x="355.75" y="-62.5" font-family="Helvetica,sans-Serif" font-size="10.00">librarysystem.h</text>
</a>
</g>
</g>
<!-- Node1&#45;&gt;Node7 -->
<g id="edge6_Node000001_Node000007" class="edge">
<title>Node1&#45;&gt;Node7</title>
<g id="a_edge6_Node000001_Node000007"><a xlink:title=" ">
<path fill="none" stroke="#63b8ff" d="M223.2,-121.7C255.51,-108.37 294.95,-92.09 322.37,-80.78"/>
<polygon fill="#63b8ff" stroke="#63b8ff" points="323.66,-84.03 331.57,-76.98 320.99,-77.56 323.66,-84.03"/>
</a>
</g>
</g>
<!-- Node7&#45;&gt;Node4 -->
<g id="edge7_Node000007_Node000004" class="edge">
<title>Node7&#45;&gt;Node4</title>
<g id="a_edge7_Node000007_Node000004"><a xlink:title=" ">
<path fill="none" stroke="#63b8ff" d="M336.94,-55.59C320.39,-47.32 296.04,-35.14 276.96,-25.6"/>
<polygon fill="#63b8ff" stroke="#63b8ff" points="278.57,-22.5 268.06,-21.16 275.44,-28.76 278.57,-22.5"/>
</a>
</g>
</g>
</g>
</svg>
