<?xml version="1.0" encoding="UTF-8" standalone="no"?>
<!DOCTYPE svg PUBLIC "-//W3C//DTD SVG 1.1//EN"
 "http://www.w3.org/Graphics/SVG/1.1/DTD/svg11.dtd">
<!-- Generated by graphviz version 2.43.0 (0)
 -->
<!-- Title: src/librarysystem/src Pages: 1 -->
<svg width="108pt" height="167pt"
 viewBox="0.00 0.00 108.00 167.00" xmlns="http://www.w3.org/2000/svg" xmlns:xlink="http://www.w3.org/1999/xlink">
<g id="graph0" class="graph" transform="scale(1 1) rotate(0) translate(4 163)">
<title>src/librarysystem/src</title>
<polygon fill="white" stroke="transparent" points="-4,4 -4,-163 104,-163 104,4 -4,4"/>
<g id="clust1" class="cluster">
<title>clusterdir_39e7d2ef6941a890097e9a67e73b43a0</title>
<g id="a_clust1"><a xlink:href="dir_39e7d2ef6941a890097e9a67e73b43a0.html" xlink:title="librarysystem">
<polygon fill="#ddddee" stroke="black" points="8,-8 8,-151 92,-151 92,-8 8,-8"/>
<text text-anchor="middle" x="50" y="-139" font-family="Helvetica,sans-Serif" font-size="10.00">librarysystem</text>
</a>
</g>
</g>
<!-- dir_4e76df52fa7f72328277230951da1767 -->
<g id="node1" class="node">
<title>dir_4e76df52fa7f72328277230951da1767</title>
<g id="a_node1"><a xlink:href="dir_4e76df52fa7f72328277230951da1767.html" xlink:title="header">
<polygon fill="none" stroke="black" points="77,-52 23,-52 23,-16 77,-16 77,-52"/>
<text text-anchor="middle" x="50" y="-31.5" font-family="Helvetica,sans-Serif" font-size="10.00">header</text>
</a>
</g>
</g>
<!-- dir_e19528fd32da302f4a4aca9cc53ac316 -->
<g id="node2" class="node">
<title>dir_e19528fd32da302f4a4aca9cc53ac316</title>
<g id="a_node2"><a xlink:href="dir_e19528fd32da302f4a4aca9cc53ac316.html" xlink:title="src">
<polygon fill="#eeeeff" stroke="black" points="77,-124 23,-124 23,-88 77,-88 77,-124"/>
<text text-anchor="middle" x="50" y="-103.5" font-family="Helvetica,sans-Serif" font-size="10.00">src</text>
</a>
</g>
</g>
<!-- dir_e19528fd32da302f4a4aca9cc53ac316&#45;&gt;dir_4e76df52fa7f72328277230951da1767 -->
<g id="edge1" class="edge">
<title>dir_e19528fd32da302f4a4aca9cc53ac316&#45;&gt;dir_4e76df52fa7f72328277230951da1767</title>
<path fill="none" stroke="black" d="M50,-87.7C50,-79.98 50,-70.71 50,-62.11"/>
<polygon fill="black" stroke="black" points="53.5,-62.1 50,-52.1 46.5,-62.1 53.5,-62.1"/>
<g id="a_edge1&#45;headlabel"><a xlink:href="dir_000003_000002.html" xlink:title="1">
<text text-anchor="middle" x="56.34" y="-63.2" font-family="Helvetica,sans-Serif" font-size="10.00">1</text>
</a>
</g>
</g>
</g>
</svg>
