<?xml version="1.0" encoding="UTF-8" standalone="no"?>
<!DOCTYPE svg PUBLIC "-//W3C//DTD SVG 1.1//EN"
 "http://www.w3.org/Graphics/SVG/1.1/DTD/svg11.dtd">
<!-- Generated by graphviz version 2.43.0 (0)
 -->
<!-- Title: src/librarysystem/src/librarysystem.cpp Pages: 1 -->
<svg width="331pt" height="151pt"
 viewBox="0.00 0.00 331.00 151.00" xmlns="http://www.w3.org/2000/svg" xmlns:xlink="http://www.w3.org/1999/xlink">
<g id="graph0" class="graph" transform="scale(1 1) rotate(0) translate(4 147)">
<title>src/librarysystem/src/librarysystem.cpp</title>
<polygon fill="white" stroke="transparent" points="-4,4 -4,-147 327,-147 327,4 -4,4"/>
<!-- Node1 -->
<g id="node1" class="node">
<title>Node1</title>
<g id="a_node1"><a xlink:title=" ">
<polygon fill="#bfbfbf" stroke="black" points="99.5,-112.5 99.5,-142.5 218.5,-142.5 218.5,-112.5 99.5,-112.5"/>
<text text-anchor="start" x="107.5" y="-130.5" font-family="Helvetica,sans-Serif" font-size="10.00">src/librarysystem/src</text>
<text text-anchor="middle" x="159" y="-119.5" font-family="Helvetica,sans-Serif" font-size="10.00">/librarysystem.cpp</text>
</a>
</g>
</g>
<!-- Node2 -->
<g id="node2" class="node">
<title>Node2</title>
<g id="a_node2"><a xlink:title=" ">
<polygon fill="white" stroke="#bfbfbf" points="0,-56.5 0,-75.5 60,-75.5 60,-56.5 0,-56.5"/>
<text text-anchor="middle" x="30" y="-63.5" font-family="Helvetica,sans-Serif" font-size="10.00">iostream</text>
</a>
</g>
</g>
<!-- Node1&#45;&gt;Node2 -->
<g id="edge1" class="edge">
<title>Node1&#45;&gt;Node2</title>
<path fill="none" stroke="midnightblue" d="M128.43,-112.4C107.07,-102.55 78.78,-89.5 58.02,-79.92"/>
<polygon fill="midnightblue" stroke="midnightblue" points="59.32,-76.67 48.77,-75.66 56.39,-83.02 59.32,-76.67"/>
</g>
<!-- Node3 -->
<g id="node3" class="node">
<title>Node3</title>
<g id="a_node3"><a xlink:title=" ">
<polygon fill="white" stroke="#bfbfbf" points="78.5,-56.5 78.5,-75.5 143.5,-75.5 143.5,-56.5 78.5,-56.5"/>
<text text-anchor="middle" x="111" y="-63.5" font-family="Helvetica,sans-Serif" font-size="10.00">stdexcept</text>
</a>
</g>
</g>
<!-- Node1&#45;&gt;Node3 -->
<g id="edge2" class="edge">
<title>Node1&#45;&gt;Node3</title>
<path fill="none" stroke="midnightblue" d="M147.62,-112.4C140.65,-103.75 131.69,-92.64 124.37,-83.58"/>
<polygon fill="midnightblue" stroke="midnightblue" points="126.99,-81.24 117.98,-75.66 121.54,-85.64 126.99,-81.24"/>
</g>
<!-- Node4 -->
<g id="node4" class="node">
<title>Node4</title>
<g id="a_node4"><a xlink:href="$librarysystem_8h.html" xlink:title=" ">
<polygon fill="white" stroke="black" points="161.5,-56.5 161.5,-75.5 254.5,-75.5 254.5,-56.5 161.5,-56.5"/>
<text text-anchor="middle" x="208" y="-63.5" font-family="Helvetica,sans-Serif" font-size="10.00">librarysystem.h</text>
</a>
</g>
</g>
<!-- Node1&#45;&gt;Node4 -->
<g id="edge3" class="edge">
<title>Node1&#45;&gt;Node4</title>
<path fill="none" stroke="midnightblue" d="M170.61,-112.4C177.73,-103.75 186.88,-92.64 194.35,-83.58"/>
<polygon fill="midnightblue" stroke="midnightblue" points="197.21,-85.6 200.87,-75.66 191.81,-81.15 197.21,-85.6"/>
</g>
<!-- Node6 -->
<g id="node6" class="node">
<title>Node6</title>
<g id="a_node6"><a xlink:title=" ">
<polygon fill="white" stroke="#bfbfbf" points="273,-56.5 273,-75.5 323,-75.5 323,-56.5 273,-56.5"/>
<text text-anchor="middle" x="298" y="-63.5" font-family="Helvetica,sans-Serif" font-size="10.00">stdio.h</text>
</a>
</g>
</g>
<!-- Node1&#45;&gt;Node6 -->
<g id="edge5" class="edge">
<title>Node1&#45;&gt;Node6</title>
<path fill="none" stroke="midnightblue" d="M191.94,-112.4C215.16,-102.46 245.99,-89.26 268.42,-79.66"/>
<polygon fill="midnightblue" stroke="midnightblue" points="269.96,-82.81 277.77,-75.66 267.2,-76.38 269.96,-82.81"/>
</g>
<!-- Node5 -->
<g id="node5" class="node">
<title>Node5</title>
<g id="a_node5"><a xlink:title=" ">
<polygon fill="white" stroke="#bfbfbf" points="186,-0.5 186,-19.5 230,-19.5 230,-0.5 186,-0.5"/>
<text text-anchor="middle" x="208" y="-7.5" font-family="Helvetica,sans-Serif" font-size="10.00">string</text>
</a>
</g>
</g>
<!-- Node4&#45;&gt;Node5 -->
<g id="edge4" class="edge">
<title>Node4&#45;&gt;Node5</title>
<path fill="none" stroke="midnightblue" d="M208,-56.08C208,-49.01 208,-38.86 208,-29.99"/>
<polygon fill="midnightblue" stroke="midnightblue" points="211.5,-29.75 208,-19.75 204.5,-29.75 211.5,-29.75"/>
</g>
</g>
</svg>
