<?xml version="1.0" encoding="UTF-8" standalone="no"?>
<!DOCTYPE svg PUBLIC "-//W3C//DTD SVG 1.1//EN"
 "http://www.w3.org/Graphics/SVG/1.1/DTD/svg11.dtd">
<!-- Generated by graphviz version 2.43.0 (0)
 -->
<!-- Title: src/librarysystemapp/src/librarysystemapp.cpp Pages: 1 -->
<svg width="398pt" height="151pt"
 viewBox="0.00 0.00 397.64 151.00" xmlns="http://www.w3.org/2000/svg" xmlns:xlink="http://www.w3.org/1999/xlink">
<g id="graph0" class="graph" transform="scale(1 1) rotate(0) translate(4 147)">
<title>src/librarysystemapp/src/librarysystemapp.cpp</title>
<polygon fill="white" stroke="transparent" points="-4,4 -4,-147 393.64,-147 393.64,4 -4,4"/>
<!-- Node1 -->
<g id="node1" class="node">
<title>Node1</title>
<g id="a_node1"><a xlink:title=" ">
<polygon fill="#bfbfbf" stroke="black" points="61.64,-112.5 61.64,-142.5 204.64,-142.5 204.64,-112.5 61.64,-112.5"/>
<text text-anchor="start" x="69.64" y="-130.5" font-family="Helvetica,sans-Serif" font-size="10.00">src/librarysystemapp</text>
<text text-anchor="middle" x="133.14" y="-119.5" font-family="Helvetica,sans-Serif" font-size="10.00">/src/librarysystemapp.cpp</text>
</a>
</g>
</g>
<!-- Node2 -->
<g id="node2" class="node">
<title>Node2</title>
<g id="a_node2"><a xlink:title=" ">
<polygon fill="white" stroke="#bfbfbf" points="135.14,-0.5 135.14,-19.5 195.14,-19.5 195.14,-0.5 135.14,-0.5"/>
<text text-anchor="middle" x="165.14" y="-7.5" font-family="Helvetica,sans-Serif" font-size="10.00">iostream</text>
</a>
</g>
</g>
<!-- Node1&#45;&gt;Node2 -->
<g id="edge1" class="edge">
<title>Node1&#45;&gt;Node2</title>
<path fill="none" stroke="midnightblue" d="M61.51,-112.46C22.31,-101.41 -14.47,-83.25 6.14,-56 20.44,-37.08 82.61,-23.83 124.84,-16.81"/>
<polygon fill="midnightblue" stroke="midnightblue" points="125.52,-20.25 134.84,-15.21 124.41,-13.34 125.52,-20.25"/>
</g>
<!-- Node3 -->
<g id="node3" class="node">
<title>Node3</title>
<g id="a_node3"><a xlink:title=" ">
<polygon fill="white" stroke="#bfbfbf" points="15.64,-56.5 15.64,-75.5 58.64,-75.5 58.64,-56.5 15.64,-56.5"/>
<text text-anchor="middle" x="37.14" y="-63.5" font-family="Helvetica,sans-Serif" font-size="10.00">stack</text>
</a>
</g>
</g>
<!-- Node1&#45;&gt;Node3 -->
<g id="edge2" class="edge">
<title>Node1&#45;&gt;Node3</title>
<path fill="none" stroke="midnightblue" d="M110.39,-112.4C95.14,-102.95 75.15,-90.56 59.9,-81.11"/>
<polygon fill="midnightblue" stroke="midnightblue" points="61.45,-77.95 51.11,-75.66 57.76,-83.9 61.45,-77.95"/>
</g>
<!-- Node4 -->
<g id="node4" class="node">
<title>Node4</title>
<g id="a_node4"><a xlink:title=" ">
<polygon fill="white" stroke="#bfbfbf" points="77.14,-56.5 77.14,-75.5 121.14,-75.5 121.14,-56.5 77.14,-56.5"/>
<text text-anchor="middle" x="99.14" y="-63.5" font-family="Helvetica,sans-Serif" font-size="10.00">string</text>
</a>
</g>
</g>
<!-- Node1&#45;&gt;Node4 -->
<g id="edge3" class="edge">
<title>Node1&#45;&gt;Node4</title>
<path fill="none" stroke="midnightblue" d="M125.08,-112.4C120.29,-104.02 114.18,-93.33 109.09,-84.42"/>
<polygon fill="midnightblue" stroke="midnightblue" points="112.08,-82.6 104.08,-75.66 106.01,-86.08 112.08,-82.6"/>
</g>
<!-- Node5 -->
<g id="node5" class="node">
<title>Node5</title>
<g id="a_node5"><a xlink:title=" ">
<polygon fill="white" stroke="#bfbfbf" points="139.14,-56.5 139.14,-75.5 195.14,-75.5 195.14,-56.5 139.14,-56.5"/>
<text text-anchor="middle" x="167.14" y="-63.5" font-family="Helvetica,sans-Serif" font-size="10.00">sstream</text>
</a>
</g>
</g>
<!-- Node1&#45;&gt;Node5 -->
<g id="edge4" class="edge">
<title>Node1&#45;&gt;Node5</title>
<path fill="none" stroke="midnightblue" d="M141.19,-112.4C145.98,-104.02 152.09,-93.33 157.18,-84.42"/>
<polygon fill="midnightblue" stroke="midnightblue" points="160.27,-86.08 162.19,-75.66 154.19,-82.6 160.27,-86.08"/>
</g>
<!-- Node6 -->
<g id="node6" class="node">
<title>Node6</title>
<g id="a_node6"><a xlink:title=" ">
<polygon fill="white" stroke="#bfbfbf" points="213.64,-56.5 213.64,-75.5 278.64,-75.5 278.64,-56.5 213.64,-56.5"/>
<text text-anchor="middle" x="246.14" y="-63.5" font-family="Helvetica,sans-Serif" font-size="10.00">stdexcept</text>
</a>
</g>
</g>
<!-- Node1&#45;&gt;Node6 -->
<g id="edge5" class="edge">
<title>Node1&#45;&gt;Node6</title>
<path fill="none" stroke="midnightblue" d="M159.92,-112.4C178.2,-102.77 202.28,-90.09 220.35,-80.58"/>
<polygon fill="midnightblue" stroke="midnightblue" points="222.48,-83.41 229.69,-75.66 219.22,-77.22 222.48,-83.41"/>
</g>
<!-- Node7 -->
<g id="node7" class="node">
<title>Node7</title>
<g id="a_node7"><a xlink:href="$librarysystem_8h.html" xlink:title=" ">
<polygon fill="white" stroke="black" points="296.64,-56.5 296.64,-75.5 389.64,-75.5 389.64,-56.5 296.64,-56.5"/>
<text text-anchor="middle" x="343.14" y="-63.5" font-family="Helvetica,sans-Serif" font-size="10.00">librarysystem.h</text>
</a>
</g>
</g>
<!-- Node1&#45;&gt;Node7 -->
<g id="edge6" class="edge">
<title>Node1&#45;&gt;Node7</title>
<path fill="none" stroke="midnightblue" d="M182.64,-112.47C219.5,-102.03 269.17,-87.96 303.44,-78.25"/>
<polygon fill="midnightblue" stroke="midnightblue" points="304.45,-81.6 313.11,-75.51 302.54,-74.87 304.45,-81.6"/>
</g>
<!-- Node7&#45;&gt;Node2 -->
<g id="edge7" class="edge">
<title>Node7&#45;&gt;Node2</title>
<path fill="none" stroke="midnightblue" d="M314.93,-56.44C284.73,-47.28 236.63,-32.69 203.11,-22.52"/>
<polygon fill="midnightblue" stroke="midnightblue" points="203.79,-19.07 193.21,-19.52 201.76,-25.77 203.79,-19.07"/>
</g>
</g>
</svg>
