<?xml version="1.0" encoding="UTF-8" standalone="no"?>
<!DOCTYPE svg PUBLIC "-//W3C//DTD SVG 1.1//EN"
 "http://www.w3.org/Graphics/SVG/1.1/DTD/svg11.dtd">
<!-- Generated by graphviz version 2.43.0 (0)
 -->
<!-- Title: src/librarysystem/src/librarysystem.cpp Pages: 1 -->
<svg width="536pt" height="151pt"
 viewBox="0.00 0.00 535.50 151.00" xmlns="http://www.w3.org/2000/svg" xmlns:xlink="http://www.w3.org/1999/xlink">
<g id="graph0" class="graph" transform="scale(1 1) rotate(0) translate(4 147)">
<title>src/librarysystem/src/librarysystem.cpp</title>
<polygon fill="white" stroke="transparent" points="-4,4 -4,-147 531.5,-147 531.5,4 -4,4"/>
<!-- Node1 -->
<g id="node1" class="node">
<title>Node1</title>
<g id="a_node1"><a xlink:title=" ">
<polygon fill="#bfbfbf" stroke="black" points="242,-112.5 242,-142.5 361,-142.5 361,-112.5 242,-112.5"/>
<text text-anchor="start" x="250" y="-130.5" font-family="Helvetica,sans-Serif" font-size="10.00">src/librarysystem/src</text>
<text text-anchor="middle" x="301.5" y="-119.5" font-family="Helvetica,sans-Serif" font-size="10.00">/librarysystem.cpp</text>
</a>
</g>
</g>
<!-- Node2 -->
<g id="node2" class="node">
<title>Node2</title>
<g id="a_node2"><a xlink:href="$librarysystem_8h.html" xlink:title=" ">
<polygon fill="white" stroke="black" points="0,-56.5 0,-75.5 139,-75.5 139,-56.5 0,-56.5"/>
<text text-anchor="middle" x="69.5" y="-63.5" font-family="Helvetica,sans-Serif" font-size="10.00">../header/librarysystem.h</text>
</a>
</g>
</g>
<!-- Node1&#45;&gt;Node2 -->
<g id="edge1" class="edge">
<title>Node1&#45;&gt;Node2</title>
<path fill="none" stroke="midnightblue" d="M246.81,-112.47C205.74,-101.94 150.27,-87.72 112.38,-78"/>
<polygon fill="midnightblue" stroke="midnightblue" points="113.22,-74.6 102.67,-75.51 111.48,-81.38 113.22,-74.6"/>
</g>
<!-- Node3 -->
<g id="node3" class="node">
<title>Node3</title>
<g id="a_node3"><a xlink:title=" ">
<polygon fill="white" stroke="#bfbfbf" points="88.5,-0.5 88.5,-19.5 148.5,-19.5 148.5,-0.5 88.5,-0.5"/>
<text text-anchor="middle" x="118.5" y="-7.5" font-family="Helvetica,sans-Serif" font-size="10.00">iostream</text>
</a>
</g>
</g>
<!-- Node1&#45;&gt;Node3 -->
<g id="edge3" class="edge">
<title>Node1&#45;&gt;Node3</title>
<path fill="none" stroke="midnightblue" d="M261.01,-112.44C238.41,-103.66 210.31,-91.15 187.5,-76 166.41,-61.99 145.76,-41.35 132.63,-27.11"/>
<polygon fill="midnightblue" stroke="midnightblue" points="135.11,-24.64 125.82,-19.56 129.91,-29.33 135.11,-24.64"/>
</g>
<!-- Node4 -->
<g id="node4" class="node">
<title>Node4</title>
<g id="a_node4"><a xlink:title=" ">
<polygon fill="white" stroke="#bfbfbf" points="196,-56.5 196,-75.5 261,-75.5 261,-56.5 196,-56.5"/>
<text text-anchor="middle" x="228.5" y="-63.5" font-family="Helvetica,sans-Serif" font-size="10.00">stdexcept</text>
</a>
</g>
</g>
<!-- Node1&#45;&gt;Node4 -->
<g id="edge4" class="edge">
<title>Node1&#45;&gt;Node4</title>
<path fill="none" stroke="midnightblue" d="M284.2,-112.4C273.05,-103.31 258.55,-91.49 247.14,-82.19"/>
<polygon fill="midnightblue" stroke="midnightblue" points="249.08,-79.26 239.12,-75.66 244.66,-84.69 249.08,-79.26"/>
</g>
<!-- Node5 -->
<g id="node5" class="node">
<title>Node5</title>
<g id="a_node5"><a xlink:title=" ">
<polygon fill="white" stroke="#bfbfbf" points="279.5,-56.5 279.5,-75.5 323.5,-75.5 323.5,-56.5 279.5,-56.5"/>
<text text-anchor="middle" x="301.5" y="-63.5" font-family="Helvetica,sans-Serif" font-size="10.00">regex</text>
</a>
</g>
</g>
<!-- Node1&#45;&gt;Node5 -->
<g id="edge5" class="edge">
<title>Node1&#45;&gt;Node5</title>
<path fill="none" stroke="midnightblue" d="M301.5,-112.4C301.5,-104.47 301.5,-94.46 301.5,-85.86"/>
<polygon fill="midnightblue" stroke="midnightblue" points="305,-85.66 301.5,-75.66 298,-85.66 305,-85.66"/>
</g>
<!-- Node6 -->
<g id="node6" class="node">
<title>Node6</title>
<g id="a_node6"><a xlink:title=" ">
<polygon fill="white" stroke="#bfbfbf" points="342,-56.5 342,-75.5 397,-75.5 397,-56.5 342,-56.5"/>
<text text-anchor="middle" x="369.5" y="-63.5" font-family="Helvetica,sans-Serif" font-size="10.00">fstream</text>
</a>
</g>
</g>
<!-- Node1&#45;&gt;Node6 -->
<g id="edge6" class="edge">
<title>Node1&#45;&gt;Node6</title>
<path fill="none" stroke="midnightblue" d="M317.62,-112.4C327.9,-103.4 341.25,-91.72 351.83,-82.47"/>
<polygon fill="midnightblue" stroke="midnightblue" points="354.38,-84.88 359.61,-75.66 349.77,-79.61 354.38,-84.88"/>
</g>
<!-- Node7 -->
<g id="node7" class="node">
<title>Node7</title>
<g id="a_node7"><a xlink:title=" ">
<polygon fill="white" stroke="#bfbfbf" points="415.5,-56.5 415.5,-75.5 465.5,-75.5 465.5,-56.5 415.5,-56.5"/>
<text text-anchor="middle" x="440.5" y="-63.5" font-family="Helvetica,sans-Serif" font-size="10.00">stdio.h</text>
</a>
</g>
</g>
<!-- Node1&#45;&gt;Node7 -->
<g id="edge7" class="edge">
<title>Node1&#45;&gt;Node7</title>
<path fill="none" stroke="midnightblue" d="M334.44,-112.4C357.66,-102.46 388.49,-89.26 410.92,-79.66"/>
<polygon fill="midnightblue" stroke="midnightblue" points="412.46,-82.81 420.27,-75.66 409.7,-76.38 412.46,-82.81"/>
</g>
<!-- Node8 -->
<g id="node8" class="node">
<title>Node8</title>
<g id="a_node8"><a xlink:title=" ">
<polygon fill="white" stroke="#bfbfbf" points="483.5,-56.5 483.5,-75.5 527.5,-75.5 527.5,-56.5 483.5,-56.5"/>
<text text-anchor="middle" x="505.5" y="-63.5" font-family="Helvetica,sans-Serif" font-size="10.00">limits</text>
</a>
</g>
</g>
<!-- Node1&#45;&gt;Node8 -->
<g id="edge8" class="edge">
<title>Node1&#45;&gt;Node8</title>
<path fill="none" stroke="midnightblue" d="M349.59,-112.47C387.91,-101.3 440.48,-85.96 473.72,-76.27"/>
<polygon fill="midnightblue" stroke="midnightblue" points="474.76,-79.61 483.38,-73.45 472.8,-72.89 474.76,-79.61"/>
</g>
<!-- Node2&#45;&gt;Node3 -->
<g id="edge2" class="edge">
<title>Node2&#45;&gt;Node3</title>
<path fill="none" stroke="midnightblue" d="M77.59,-56.08C84.66,-48.3 95.09,-36.8 103.65,-27.37"/>
<polygon fill="midnightblue" stroke="midnightblue" points="106.43,-29.51 110.56,-19.75 101.25,-24.8 106.43,-29.51"/>
</g>
</g>
</svg>
