<?xml version="1.0" encoding="UTF-8" standalone="no"?>
<!DOCTYPE svg PUBLIC "-//W3C//DTD SVG 1.1//EN"
 "http://www.w3.org/Graphics/SVG/1.1/DTD/svg11.dtd">
<!-- Generated by graphviz version 2.43.0 (0)
 -->
<!-- Title: LibrarysystemTest Pages: 1 -->
<svg width="133pt" height="193pt"
 viewBox="0.00 0.00 133.00 193.00" xmlns="http://www.w3.org/2000/svg" xmlns:xlink="http://www.w3.org/1999/xlink">
<g id="graph0" class="graph" transform="scale(1 1) rotate(0) translate(4 189)">
<title>LibrarysystemTest</title>
<polygon fill="white" stroke="transparent" points="-4,4 -4,-189 129,-189 129,4 -4,4"/>
<!-- Node1 -->
<g id="node1" class="node">
<title>Node1</title>
<g id="a_node1"><a xlink:title=" ">
<polygon fill="#bfbfbf" stroke="black" points="0,-0.5 0,-90.5 125,-90.5 125,-0.5 0,-0.5"/>
<text text-anchor="middle" x="62.5" y="-78.5" font-family="Helvetica,sans-Serif" font-size="10.00">LibrarysystemTest</text>
<polyline fill="none" stroke="black" points="0,-71.5 125,-71.5 "/>
<text text-anchor="start" x="8" y="-59.5" font-family="Helvetica,sans-Serif" font-size="10.00"># out</text>
<text text-anchor="start" x="8" y="-48.5" font-family="Helvetica,sans-Serif" font-size="10.00"># in</text>
<polyline fill="none" stroke="black" points="0,-41.5 125,-41.5 "/>
<text text-anchor="start" x="8" y="-29.5" font-family="Helvetica,sans-Serif" font-size="10.00"># SetUp()</text>
<text text-anchor="start" x="8" y="-18.5" font-family="Helvetica,sans-Serif" font-size="10.00"># TearDown()</text>
<text text-anchor="start" x="8" y="-7.5" font-family="Helvetica,sans-Serif" font-size="10.00"># simulateUserInput()</text>
</a>
</g>
</g>
<!-- Node2 -->
<g id="node2" class="node">
<title>Node2</title>
<g id="a_node2"><a xlink:title=" ">
<polygon fill="white" stroke="#bfbfbf" points="24.5,-127.5 24.5,-184.5 100.5,-184.5 100.5,-127.5 24.5,-127.5"/>
<text text-anchor="middle" x="62.5" y="-172.5" font-family="Helvetica,sans-Serif" font-size="10.00">testing::Test</text>
<polyline fill="none" stroke="#bfbfbf" points="24.5,-165.5 100.5,-165.5 "/>
<text text-anchor="middle" x="62.5" y="-153.5" font-family="Helvetica,sans-Serif" font-size="10.00"> </text>
<polyline fill="none" stroke="#bfbfbf" points="24.5,-146.5 100.5,-146.5 "/>
<text text-anchor="middle" x="62.5" y="-134.5" font-family="Helvetica,sans-Serif" font-size="10.00"> </text>
</a>
</g>
</g>
<!-- Node2&#45;&gt;Node1 -->
<g id="edge1" class="edge">
<title>Node2&#45;&gt;Node1</title>
<path fill="none" stroke="midnightblue" d="M62.5,-117.21C62.5,-108.61 62.5,-99.39 62.5,-90.55"/>
<polygon fill="none" stroke="midnightblue" points="59,-117.34 62.5,-127.34 66,-117.34 59,-117.34"/>
</g>
</g>
</svg>
