<?xml version="1.0" encoding="UTF-8" standalone="no"?>
<!DOCTYPE svg PUBLIC "-//W3C//DTD SVG 1.1//EN"
 "http://www.w3.org/Graphics/SVG/1.1/DTD/svg11.dtd">
<!-- Generated by graphviz version 9.0.0 (20230911.1827)
 -->
<!-- Title: src/librarysystemapp/src/librarysystemapp.cpp Pages: 1 -->
<svg width="368pt" height="152pt"
 viewBox="0.00 0.00 368.16 152.00" xmlns="http://www.w3.org/2000/svg" xmlns:xlink="http://www.w3.org/1999/xlink">
<g id="graph0" class="graph" transform="scale(1 1) rotate(0) translate(4 148)">
<title>src/librarysystemapp/src/librarysystemapp.cpp</title>
<!-- Node1 -->
<g id="Node000001" class="node">
<title>Node1</title>
<g id="a_Node000001"><a xlink:title=" ">
<polygon fill="#999999" stroke="#666666" points="189.03,-144 60.53,-144 60.53,-112 189.03,-112 189.03,-144"/>
<text text-anchor="start" x="68.53" y="-130.5" font-family="Helvetica,sans-Serif" font-size="10.00">src/librarysystemapp</text>
<text text-anchor="middle" x="124.78" y="-118.5" font-family="Helvetica,sans-Serif" font-size="10.00">/src/librarysystemapp.cpp</text>
</a>
</g>
</g>
<!-- Node2 -->
<g id="Node000002" class="node">
<title>Node2</title>
<g id="a_Node000002"><a xlink:title=" ">
<polygon fill="#e0e0e0" stroke="#999999" points="179.53,-20 126.03,-20 126.03,0 179.53,0 179.53,-20"/>
<text text-anchor="middle" x="152.78" y="-6.5" font-family="Helvetica,sans-Serif" font-size="10.00">iostream</text>
</a>
</g>
</g>
<!-- Node1&#45;&gt;Node2 -->
<g id="edge15_Node000001_Node000002" class="edge">
<title>Node1&#45;&gt;Node2</title>
<g id="a_edge15_Node000001_Node000002"><a xlink:title=" ">
<path fill="none" stroke="#63b8ff" d="M60.06,-112.79C22.42,-101.37 -14.03,-82.79 5.78,-56 30.59,-22.46 79.92,-13.1 114.57,-10.9"/>
<polygon fill="#63b8ff" stroke="#63b8ff" points="114.35,-14.41 124.18,-10.47 114.04,-7.42 114.35,-14.41"/>
</a>
</g>
</g>
<!-- Node3 -->
<g id="Node000003" class="node">
<title>Node3</title>
<g id="a_Node000003"><a xlink:title=" ">
<polygon fill="#e0e0e0" stroke="#999999" points="54.78,-76 14.78,-76 14.78,-56 54.78,-56 54.78,-76"/>
<text text-anchor="middle" x="34.78" y="-62.5" font-family="Helvetica,sans-Serif" font-size="10.00">stack</text>
</a>
</g>
</g>
<!-- Node1&#45;&gt;Node3 -->
<g id="edge16_Node000001_Node000003" class="edge">
<title>Node1&#45;&gt;Node3</title>
<g id="a_edge16_Node000001_Node000003"><a xlink:title=" ">
<path fill="none" stroke="#63b8ff" d="M101.6,-111.55C88.32,-102.69 71.69,-91.61 58.35,-82.71"/>
<polygon fill="#63b8ff" stroke="#63b8ff" points="60.41,-79.88 50.15,-77.25 56.53,-85.71 60.41,-79.88"/>
</a>
</g>
</g>
<!-- Node4 -->
<g id="Node000004" class="node">
<title>Node4</title>
<g id="a_Node000004"><a xlink:title=" ">
<polygon fill="#e0e0e0" stroke="#999999" points="112.78,-76 72.78,-76 72.78,-56 112.78,-56 112.78,-76"/>
<text text-anchor="middle" x="92.78" y="-62.5" font-family="Helvetica,sans-Serif" font-size="10.00">string</text>
</a>
</g>
</g>
<!-- Node1&#45;&gt;Node4 -->
<g id="edge17_Node000001_Node000004" class="edge">
<title>Node1&#45;&gt;Node4</title>
<g id="a_edge17_Node000001_Node000004"><a xlink:title=" ">
<path fill="none" stroke="#63b8ff" d="M116.54,-111.55C112.47,-103.91 107.51,-94.61 103.17,-86.49"/>
<polygon fill="#63b8ff" stroke="#63b8ff" points="106.3,-84.92 98.51,-77.74 100.13,-88.21 106.3,-84.92"/>
</a>
</g>
</g>
<!-- Node5 -->
<g id="Node000005" class="node">
<title>Node5</title>
<g id="a_Node000005"><a xlink:title=" ">
<polygon fill="#e0e0e0" stroke="#999999" points="182.41,-76 131.16,-76 131.16,-56 182.41,-56 182.41,-76"/>
<text text-anchor="middle" x="156.78" y="-62.5" font-family="Helvetica,sans-Serif" font-size="10.00">sstream</text>
</a>
</g>
</g>
<!-- Node1&#45;&gt;Node5 -->
<g id="edge18_Node000001_Node000005" class="edge">
<title>Node1&#45;&gt;Node5</title>
<g id="a_edge18_Node000001_Node000005"><a xlink:title=" ">
<path fill="none" stroke="#63b8ff" d="M133.02,-111.55C137.1,-103.91 142.05,-94.61 146.39,-86.49"/>
<polygon fill="#63b8ff" stroke="#63b8ff" points="149.43,-88.21 151.05,-77.74 143.26,-84.92 149.43,-88.21"/>
</a>
</g>
</g>
<!-- Node6 -->
<g id="Node000006" class="node">
<title>Node6</title>
<g id="a_Node000006"><a xlink:title=" ">
<polygon fill="#e0e0e0" stroke="#999999" points="259.16,-76 200.41,-76 200.41,-56 259.16,-56 259.16,-76"/>
<text text-anchor="middle" x="229.78" y="-62.5" font-family="Helvetica,sans-Serif" font-size="10.00">stdexcept</text>
</a>
</g>
</g>
<!-- Node1&#45;&gt;Node6 -->
<g id="edge19_Node000001_Node000006" class="edge">
<title>Node1&#45;&gt;Node6</title>
<g id="a_edge19_Node000001_Node000006"><a xlink:title=" ">
<path fill="none" stroke="#63b8ff" d="M151.82,-111.55C167.77,-102.43 187.86,-90.96 203.65,-81.93"/>
<polygon fill="#63b8ff" stroke="#63b8ff" points="205.06,-85.16 212,-77.16 201.58,-79.08 205.06,-85.16"/>
</a>
</g>
</g>
<!-- Node7 -->
<g id="Node000007" class="node">
<title>Node7</title>
<g id="a_Node000007"><a xlink:href="$librarysystem_8h.html" xlink:title="Header file for the Personal Library System.">
<polygon fill="white" stroke="#666666" points="360.16,-76 277.41,-76 277.41,-56 360.16,-56 360.16,-76"/>
<text text-anchor="middle" x="318.78" y="-62.5" font-family="Helvetica,sans-Serif" font-size="10.00">librarysystem.h</text>
</a>
</g>
</g>
<!-- Node1&#45;&gt;Node7 -->
<g id="edge20_Node000001_Node000007" class="edge">
<title>Node1&#45;&gt;Node7</title>
<g id="a_edge20_Node000001_Node000007"><a xlink:title=" ">
<path fill="none" stroke="#63b8ff" d="M174.74,-111.55C206.5,-101.73 247.13,-89.16 277.14,-79.88"/>
<polygon fill="#63b8ff" stroke="#63b8ff" points="278.11,-83.24 286.63,-76.94 276.04,-76.55 278.11,-83.24"/>
</a>
</g>
</g>
<!-- Node7&#45;&gt;Node2 -->
<g id="edge21_Node000007_Node000002" class="edge">
<title>Node7&#45;&gt;Node2</title>
<g id="a_edge21_Node000007_Node000002"><a xlink:title=" ">
<path fill="none" stroke="#63b8ff" d="M289.87,-55.59C262.44,-46.67 221.05,-33.21 190.93,-23.41"/>
<polygon fill="#63b8ff" stroke="#63b8ff" points="192.02,-20.08 181.43,-20.32 189.85,-26.74 192.02,-20.08"/>
</a>
</g>
</g>
</g>
</svg>
