<?xml version="1.0" encoding="UTF-8" standalone="no"?>
<!DOCTYPE svg PUBLIC "-//W3C//DTD SVG 1.1//EN"
 "http://www.w3.org/Graphics/SVG/1.1/DTD/svg11.dtd">
<!-- Generated by graphviz version 9.0.0 (20230911.1827)
 -->
<!-- Title:  Final/ce103&#45;final&#45;yakup&#45;eroglu&#45;hasan&#45;basri&#45;taskin&#45;cpp/src/librarysystem/src/librarysystem.cpp Pages: 1 -->
<svg width="302pt" height="176pt"
 viewBox="0.00 0.00 302.38 176.00" xmlns="http://www.w3.org/2000/svg" xmlns:xlink="http://www.w3.org/1999/xlink">
<g id="graph0" class="graph" transform="scale(1 1) rotate(0) translate(4 172)">
<title> Final/ce103&#45;final&#45;yakup&#45;eroglu&#45;hasan&#45;basri&#45;taskin&#45;cpp/src/librarysystem/src/librarysystem.cpp</title>
<!-- Node1 -->
<g id="Node000001" class="node">
<title>Node1</title>
<g id="a_Node000001"><a xlink:title=" ">
<polygon fill="#999999" stroke="#666666" points="231.88,-168 57.62,-168 57.62,-112 231.88,-112 231.88,-168"/>
<text text-anchor="start" x="65.62" y="-154.5" font-family="Helvetica,sans-Serif" font-size="10.00"> Final/ce103&#45;final</text>
<text text-anchor="start" x="65.62" y="-142.5" font-family="Helvetica,sans-Serif" font-size="10.00">&#45;yakup&#45;eroglu&#45;hasan</text>
<text text-anchor="start" x="65.62" y="-130.5" font-family="Helvetica,sans-Serif" font-size="10.00">&#45;basri&#45;taskin&#45;cpp/src</text>
<text text-anchor="middle" x="144.75" y="-118.5" font-family="Helvetica,sans-Serif" font-size="10.00">/librarysystem/src/librarysystem.cpp</text>
</a>
</g>
</g>
<!-- Node2 -->
<g id="Node000002" class="node">
<title>Node2</title>
<g id="a_Node000002"><a xlink:title=" ">
<polygon fill="#e0e0e0" stroke="#999999" points="53.5,-76 0,-76 0,-56 53.5,-56 53.5,-76"/>
<text text-anchor="middle" x="26.75" y="-62.5" font-family="Helvetica,sans-Serif" font-size="10.00">iostream</text>
</a>
</g>
</g>
<!-- Node1&#45;&gt;Node2 -->
<g id="edge11_Node000001_Node000002" class="edge">
<title>Node1&#45;&gt;Node2</title>
<g id="a_edge11_Node000001_Node000002"><a xlink:title=" ">
<path fill="none" stroke="#63b8ff" d="M99.8,-111.57C83.61,-101.69 65.92,-90.9 52,-82.41"/>
<polygon fill="#63b8ff" stroke="#63b8ff" points="53.83,-79.42 43.47,-77.2 50.19,-85.4 53.83,-79.42"/>
</a>
</g>
</g>
<!-- Node3 -->
<g id="Node000003" class="node">
<title>Node3</title>
<g id="a_Node000003"><a xlink:title=" ">
<polygon fill="#e0e0e0" stroke="#999999" points="130.12,-76 71.38,-76 71.38,-56 130.12,-56 130.12,-76"/>
<text text-anchor="middle" x="100.75" y="-62.5" font-family="Helvetica,sans-Serif" font-size="10.00">stdexcept</text>
</a>
</g>
</g>
<!-- Node1&#45;&gt;Node3 -->
<g id="edge12_Node000001_Node000003" class="edge">
<title>Node1&#45;&gt;Node3</title>
<g id="a_edge12_Node000001_Node000003"><a xlink:title=" ">
<path fill="none" stroke="#63b8ff" d="M128.12,-111.78C122.9,-103.24 117.25,-93.99 112.44,-86.13"/>
<polygon fill="#63b8ff" stroke="#63b8ff" points="115.53,-84.47 107.33,-77.76 109.56,-88.12 115.53,-84.47"/>
</a>
</g>
</g>
<!-- Node4 -->
<g id="Node000004" class="node">
<title>Node4</title>
<g id="a_Node000004"><a xlink:href="$librarysystem_8h.html" xlink:title=" ">
<polygon fill="white" stroke="#666666" points="231.12,-76 148.38,-76 148.38,-56 231.12,-56 231.12,-76"/>
<text text-anchor="middle" x="189.75" y="-62.5" font-family="Helvetica,sans-Serif" font-size="10.00">librarysystem.h</text>
</a>
</g>
</g>
<!-- Node1&#45;&gt;Node4 -->
<g id="edge13_Node000001_Node000004" class="edge">
<title>Node1&#45;&gt;Node4</title>
<g id="a_edge13_Node000001_Node000004"><a xlink:title=" ">
<path fill="none" stroke="#63b8ff" d="M161.76,-111.78C167.1,-103.24 172.88,-93.99 177.79,-86.13"/>
<polygon fill="#63b8ff" stroke="#63b8ff" points="180.7,-88.09 183.03,-77.76 174.76,-84.38 180.7,-88.09"/>
</a>
</g>
</g>
<!-- Node6 -->
<g id="Node000006" class="node">
<title>Node6</title>
<g id="a_Node000006"><a xlink:title=" ">
<polygon fill="#e0e0e0" stroke="#999999" points="294.38,-76 249.12,-76 249.12,-56 294.38,-56 294.38,-76"/>
<text text-anchor="middle" x="271.75" y="-62.5" font-family="Helvetica,sans-Serif" font-size="10.00">stdio.h</text>
</a>
</g>
</g>
<!-- Node1&#45;&gt;Node6 -->
<g id="edge15_Node000001_Node000006" class="edge">
<title>Node1&#45;&gt;Node6</title>
<g id="a_edge15_Node000001_Node000006"><a xlink:title=" ">
<path fill="none" stroke="#63b8ff" d="M193.13,-111.57C210.9,-101.5 230.34,-90.47 245.45,-81.91"/>
<polygon fill="#63b8ff" stroke="#63b8ff" points="246.85,-85.14 253.83,-77.16 243.4,-79.05 246.85,-85.14"/>
</a>
</g>
</g>
<!-- Node5 -->
<g id="Node000005" class="node">
<title>Node5</title>
<g id="a_Node000005"><a xlink:title=" ">
<polygon fill="#e0e0e0" stroke="#999999" points="209.75,-20 169.75,-20 169.75,0 209.75,0 209.75,-20"/>
<text text-anchor="middle" x="189.75" y="-6.5" font-family="Helvetica,sans-Serif" font-size="10.00">string</text>
</a>
</g>
</g>
<!-- Node4&#45;&gt;Node5 -->
<g id="edge14_Node000004_Node000005" class="edge">
<title>Node4&#45;&gt;Node5</title>
<g id="a_edge14_Node000004_Node000005"><a xlink:title=" ">
<path fill="none" stroke="#63b8ff" d="M189.75,-55.59C189.75,-49.01 189.75,-39.96 189.75,-31.73"/>
<polygon fill="#63b8ff" stroke="#63b8ff" points="193.25,-31.81 189.75,-21.81 186.25,-31.81 193.25,-31.81"/>
</a>
</g>
</g>
</g>
</svg>
