<?xml version="1.0" encoding="UTF-8" standalone="no"?>
<!DOCTYPE svg PUBLIC "-//W3C//DTD SVG 1.1//EN"
 "http://www.w3.org/Graphics/SVG/1.1/DTD/svg11.dtd">
<!-- Generated by graphviz version 9.0.0 (20230911.1827)
 -->
<!-- Title: src/librarysystem/src/librarysystem.cpp Pages: 1 -->
<svg width="491pt" height="152pt"
 viewBox="0.00 0.00 490.62 152.00" xmlns="http://www.w3.org/2000/svg" xmlns:xlink="http://www.w3.org/1999/xlink">
<g id="graph0" class="graph" transform="scale(1 1) rotate(0) translate(4 148)">
<title>src/librarysystem/src/librarysystem.cpp</title>
<!-- Node1 -->
<g id="Node000001" class="node">
<title>Node1</title>
<g id="a_Node000001"><a xlink:title="Implementation file for the Library System.">
<polygon fill="#999999" stroke="#666666" points="329.75,-144 222.25,-144 222.25,-112 329.75,-112 329.75,-144"/>
<text text-anchor="start" x="230.25" y="-130.5" font-family="Helvetica,sans-Serif" font-size="10.00">src/librarysystem/src</text>
<text text-anchor="middle" x="276" y="-118.5" font-family="Helvetica,sans-Serif" font-size="10.00">/librarysystem.cpp</text>
</a>
</g>
</g>
<!-- Node2 -->
<g id="Node000002" class="node">
<title>Node2</title>
<g id="a_Node000002"><a xlink:href="$librarysystem_8h.html" xlink:title="Header file for the Personal Library System.">
<polygon fill="white" stroke="#666666" points="124,-76 0,-76 0,-56 124,-56 124,-76"/>
<text text-anchor="middle" x="62" y="-62.5" font-family="Helvetica,sans-Serif" font-size="10.00">../header/librarysystem.h</text>
</a>
</g>
</g>
<!-- Node1&#45;&gt;Node2 -->
<g id="edge17_Node000001_Node000002" class="edge">
<title>Node1&#45;&gt;Node2</title>
<g id="a_edge17_Node000001_Node000002"><a xlink:title=" ">
<path fill="none" stroke="#63b8ff" d="M222,-111.86C186.29,-101.85 140.04,-88.88 106.46,-79.47"/>
<polygon fill="#63b8ff" stroke="#63b8ff" points="107.62,-76.16 97.05,-76.83 105.73,-82.9 107.62,-76.16"/>
</a>
</g>
</g>
<!-- Node3 -->
<g id="Node000003" class="node">
<title>Node3</title>
<g id="a_Node000003"><a xlink:title=" ">
<polygon fill="#e0e0e0" stroke="#999999" points="133.75,-20 80.25,-20 80.25,0 133.75,0 133.75,-20"/>
<text text-anchor="middle" x="107" y="-6.5" font-family="Helvetica,sans-Serif" font-size="10.00">iostream</text>
</a>
</g>
</g>
<!-- Node1&#45;&gt;Node3 -->
<g id="edge19_Node000001_Node000003" class="edge">
<title>Node1&#45;&gt;Node3</title>
<g id="a_edge19_Node000001_Node000003"><a xlink:title=" ">
<path fill="none" stroke="#63b8ff" d="M236.32,-111.56C215.87,-102.68 191.08,-90.42 171,-76 152.19,-62.49 133.98,-43.2 121.83,-29.15"/>
<polygon fill="#63b8ff" stroke="#63b8ff" points="124.54,-26.94 115.43,-21.55 119.19,-31.45 124.54,-26.94"/>
</a>
</g>
</g>
<!-- Node4 -->
<g id="Node000004" class="node">
<title>Node4</title>
<g id="a_Node000004"><a xlink:title=" ">
<polygon fill="#e0e0e0" stroke="#999999" points="238.38,-76 179.62,-76 179.62,-56 238.38,-56 238.38,-76"/>
<text text-anchor="middle" x="209" y="-62.5" font-family="Helvetica,sans-Serif" font-size="10.00">stdexcept</text>
</a>
</g>
</g>
<!-- Node1&#45;&gt;Node4 -->
<g id="edge20_Node000001_Node000004" class="edge">
<title>Node1&#45;&gt;Node4</title>
<g id="a_edge20_Node000001_Node000004"><a xlink:title=" ">
<path fill="none" stroke="#63b8ff" d="M258.75,-111.55C249.34,-103.13 237.69,-92.69 228.02,-84.04"/>
<polygon fill="#63b8ff" stroke="#63b8ff" points="230.42,-81.48 220.63,-77.42 225.75,-86.7 230.42,-81.48"/>
</a>
</g>
</g>
<!-- Node5 -->
<g id="Node000005" class="node">
<title>Node5</title>
<g id="a_Node000005"><a xlink:title=" ">
<polygon fill="#e0e0e0" stroke="#999999" points="296,-76 256,-76 256,-56 296,-56 296,-76"/>
<text text-anchor="middle" x="276" y="-62.5" font-family="Helvetica,sans-Serif" font-size="10.00">regex</text>
</a>
</g>
</g>
<!-- Node1&#45;&gt;Node5 -->
<g id="edge21_Node000001_Node000005" class="edge">
<title>Node1&#45;&gt;Node5</title>
<g id="a_edge21_Node000001_Node000005"><a xlink:title=" ">
<path fill="none" stroke="#63b8ff" d="M276,-111.55C276,-104.34 276,-95.66 276,-87.88"/>
<polygon fill="#63b8ff" stroke="#63b8ff" points="279.5,-87.92 276,-77.92 272.5,-87.92 279.5,-87.92"/>
</a>
</g>
</g>
<!-- Node6 -->
<g id="Node000006" class="node">
<title>Node6</title>
<g id="a_Node000006"><a xlink:title=" ">
<polygon fill="#e0e0e0" stroke="#999999" points="362.12,-76 313.88,-76 313.88,-56 362.12,-56 362.12,-76"/>
<text text-anchor="middle" x="338" y="-62.5" font-family="Helvetica,sans-Serif" font-size="10.00">fstream</text>
</a>
</g>
</g>
<!-- Node1&#45;&gt;Node6 -->
<g id="edge22_Node000001_Node000006" class="edge">
<title>Node1&#45;&gt;Node6</title>
<g id="a_edge22_Node000001_Node000006"><a xlink:title=" ">
<path fill="none" stroke="#63b8ff" d="M291.97,-111.55C300.58,-103.22 311.23,-92.91 320.12,-84.3"/>
<polygon fill="#63b8ff" stroke="#63b8ff" points="322.44,-86.93 327.19,-77.46 317.57,-81.9 322.44,-86.93"/>
</a>
</g>
</g>
<!-- Node7 -->
<g id="Node000007" class="node">
<title>Node7</title>
<g id="a_Node000007"><a xlink:title=" ">
<polygon fill="#e0e0e0" stroke="#999999" points="425.62,-76 380.38,-76 380.38,-56 425.62,-56 425.62,-76"/>
<text text-anchor="middle" x="403" y="-62.5" font-family="Helvetica,sans-Serif" font-size="10.00">stdio.h</text>
</a>
</g>
</g>
<!-- Node1&#45;&gt;Node7 -->
<g id="edge23_Node000001_Node000007" class="edge">
<title>Node1&#45;&gt;Node7</title>
<g id="a_edge23_Node000001_Node000007"><a xlink:title=" ">
<path fill="none" stroke="#63b8ff" d="M308.71,-111.55C328.46,-102.22 353.45,-90.41 372.75,-81.29"/>
<polygon fill="#63b8ff" stroke="#63b8ff" points="374.17,-84.49 381.72,-77.05 371.18,-78.16 374.17,-84.49"/>
</a>
</g>
</g>
<!-- Node8 -->
<g id="Node000008" class="node">
<title>Node8</title>
<g id="a_Node000008"><a xlink:title=" ">
<polygon fill="#e0e0e0" stroke="#999999" points="482.62,-76 443.38,-76 443.38,-56 482.62,-56 482.62,-76"/>
<text text-anchor="middle" x="463" y="-62.5" font-family="Helvetica,sans-Serif" font-size="10.00">limits</text>
</a>
</g>
</g>
<!-- Node1&#45;&gt;Node8 -->
<g id="edge24_Node000001_Node000008" class="edge">
<title>Node1&#45;&gt;Node8</title>
<g id="a_edge24_Node000001_Node000008"><a xlink:title=" ">
<path fill="none" stroke="#63b8ff" d="M324.01,-111.61C353.03,-102.3 391.05,-90.11 432.28,-76.87"/>
<polygon fill="#63b8ff" stroke="#63b8ff" points="433.22,-80.25 441.67,-73.86 431.08,-73.58 433.22,-80.25"/>
</a>
</g>
</g>
<!-- Node2&#45;&gt;Node3 -->
<g id="edge18_Node000002_Node000003" class="edge">
<title>Node2&#45;&gt;Node3</title>
<g id="a_edge18_Node000002_Node000003"><a xlink:title=" ">
<path fill="none" stroke="#63b8ff" d="M69.84,-55.59C75.97,-48.24 84.67,-37.8 92.11,-28.87"/>
<polygon fill="#63b8ff" stroke="#63b8ff" points="94.57,-31.38 98.28,-21.46 89.19,-26.9 94.57,-31.38"/>
</a>
</g>
</g>
</g>
</svg>
